<?xml version="1.0" encoding="UTF-8" standalone="no"?>
<!-- Created with Inkscape (http://www.inkscape.org/) -->

<svg
   width="170mm"
   height="100mm"
   viewBox="0 0 170 100"
   version="1.1"
   id="svg5"
   inkscape:version="1.2.2 (b0a84865, 2022-12-01)"
   sodipodi:docname="mem-interface.svg"
   xmlns:inkscape="http://www.inkscape.org/namespaces/inkscape"
   xmlns:sodipodi="http://sodipodi.sourceforge.net/DTD/sodipodi-0.dtd"
   xmlns="http://www.w3.org/2000/svg"
   xmlns:svg="http://www.w3.org/2000/svg">
  <sodipodi:namedview
     id="namedview7"
     pagecolor="#ffffff"
     bordercolor="#cccccc"
     borderopacity="1"
     inkscape:showpageshadow="0"
     inkscape:pageopacity="1"
     inkscape:pagecheckerboard="0"
     inkscape:deskcolor="#d1d1d1"
     inkscape:document-units="mm"
     showgrid="false"
     inkscape:zoom="1"
     inkscape:cx="309.5"
     inkscape:cy="93.5"
     inkscape:window-width="1390"
     inkscape:window-height="1205"
     inkscape:window-x="85"
     inkscape:window-y="25"
     inkscape:window-maximized="0"
     inkscape:current-layer="layer1" />
  <defs
     id="defs2">
    <rect
       x="78.47364"
       y="380.28482"
       width="647.11041"
       height="316.61777"
       id="rect38126" />
    <rect
       x="194.79482"
       y="583.15228"
       width="478.59506"
       height="168.18045"
       id="rect35216" />
    <rect
       x="194.19962"
       y="550.95117"
       width="474.91864"
       height="194.2532"
       id="rect35210" />
  </defs>
  <g
     inkscape:label="Layer 1"
     inkscape:groupmode="layer"
     id="layer1">
    <path
       id="rect34622"
       style="fill:#ffffff;stroke:#000000;stroke-width:0.5"
       d="m 10.25,10.25 h 149.5 v 79.5 H 10.25 Z" />
    <g
       transform="scale(0.26458333)"
       id="text35208"
       style="font-size:40px;line-height:1.25;font-family:'DejaVu Sans';-inkscape-font-specification:'DejaVu Sans';letter-spacing:0px;word-spacing:0px;white-space:pre;shape-inside:url(#rect35210)" />
    <g
       aria-label="Memory Interface"
       transform="matrix(0.26458333,0,0,0.26458333,-13.671185,-140.61531)"
       id="text35214"
       style="font-size:40px;line-height:1.25;font-family:'DejaVu Sans';-inkscape-font-specification:'DejaVu Sans';letter-spacing:0px;word-spacing:0px;white-space:pre;shape-inside:url(#rect35216)">
      <path
         d="m 224.59961,619.64556 h -3.86719 v -25.0586 l -8.08594,17.05078 h -2.30468 l -8.02735,-17.05078 v 25.0586 h -3.61328 v -29.08203 h 5.27344 l 7.75391,16.1914 7.5,-16.1914 h 5.37109 z"
         id="path557" />
      <path
         d="m 250.38086,609.11821 h -16.07422 q 0,2.01172 0.60547,3.51563 0.60547,1.48437 1.66016,2.4414 1.01562,0.9375 2.40234,1.40625 1.40625,0.46875 3.08594,0.46875 2.22656,0 4.47265,-0.8789 2.26563,-0.89844 3.22266,-1.75781 h 0.19531 v 4.0039 q -1.85547,0.78125 -3.78906,1.3086 -1.93359,0.52734 -4.0625,0.52734 -5.42969,0 -8.47656,-2.92969 -3.04688,-2.94922 -3.04688,-8.35937 0,-5.35157 2.91016,-8.4961 2.92969,-3.14453 7.69531,-3.14453 4.41406,0 6.79688,2.57813 2.40234,2.57812 2.40234,7.32422 z m -3.57422,-2.8125 q -0.0195,-2.89062 -1.46484,-4.47265 -1.42578,-1.58203 -4.35547,-1.58203 -2.94922,0 -4.70703,1.73828 -1.73828,1.73828 -1.97266,4.3164 z"
         id="path559" />
      <path
         d="m 287.7832,619.64556 h -3.67187 v -12.42188 q 0,-1.40625 -0.13672,-2.71484 -0.11719,-1.3086 -0.52734,-2.08985 -0.44922,-0.83984 -1.28907,-1.26953 -0.83984,-0.42968 -2.42187,-0.42968 -1.54297,0 -3.08594,0.78125 -1.54297,0.76171 -3.08594,1.95312 0.0586,0.44922 0.0977,1.05469 0.0391,0.58594 0.0391,1.17187 v 13.96485 h -3.67187 v -12.42188 q 0,-1.44531 -0.13672,-2.73437 -0.11719,-1.3086 -0.52735,-2.08985 -0.44921,-0.83984 -1.28906,-1.25 -0.83984,-0.42968 -2.42187,-0.42968 -1.50391,0 -3.02735,0.74218 -1.5039,0.74219 -3.00781,1.89453 v 16.28907 h -3.67187 v -21.81641 h 3.67187 v 2.42188 q 1.71875,-1.42579 3.41797,-2.22657 1.71875,-0.80078 3.65234,-0.80078 2.22657,0 3.76953,0.9375 1.5625,0.9375 2.32422,2.59766 2.22657,-1.875 4.0625,-2.69531 1.83594,-0.83985 3.92578,-0.83985 3.59375,0 5.29297,2.1875 1.71875,2.16797 1.71875,6.07422 z"
         id="path561" />
      <path
         d="m 313.44727,608.74712 q 0,5.33203 -2.73438,8.41797 -2.73437,3.08594 -7.32422,3.08594 -4.6289,0 -7.36328,-3.08594 -2.71484,-3.08594 -2.71484,-8.41797 0,-5.33203 2.71484,-8.41797 2.73438,-3.10547 7.36328,-3.10547 4.58985,0 7.32422,3.10547 2.73438,3.08594 2.73438,8.41797 z m -3.78907,0 q 0,-4.23828 -1.66015,-6.28906 -1.66016,-2.07032 -4.60938,-2.07032 -2.98828,0 -4.64844,2.07032 -1.64062,2.05078 -1.64062,6.28906 0,4.10156 1.66016,6.23047 1.66015,2.10937 4.6289,2.10937 2.92969,0 4.58985,-2.08984 1.67968,-2.10938 1.67968,-6.25 z"
         id="path563" />
      <path
         d="m 332.74414,601.83306 h -0.19531 q -0.82031,-0.19532 -1.60156,-0.27344 -0.76172,-0.0977 -1.81641,-0.0977 -1.69922,0 -3.28125,0.76172 -1.58203,0.74219 -3.04688,1.9336 v 15.48828 h -3.67187 v -21.81641 h 3.67187 v 3.22266 q 2.1875,-1.75782 3.84766,-2.48047 1.67969,-0.74219 3.41797,-0.74219 0.95703,0 1.38672,0.0586 0.42969,0.0391 1.28906,0.17579 z"
         id="path565" />
      <path
         d="m 355.06836,597.82915 -12.73438,29.86328 h -3.92578 l 4.0625,-9.10156 -8.6914,-20.76172 h 3.98437 l 6.69922,16.17188 6.75781,-16.17188 z"
         id="path567" />
      <path
         d="m 384.48242,619.64556 h -11.48437 v -2.96875 h 3.80859 v -23.14453 h -3.80859 v -2.96875 h 11.48437 v 2.96875 h -3.80859 v 23.14453 h 3.80859 z"
         id="path569" />
      <path
         d="m 409.01367,619.64556 h -3.67187 v -12.42188 q 0,-1.5039 -0.17578,-2.8125 -0.17579,-1.32812 -0.64454,-2.07031 -0.48828,-0.82031 -1.40625,-1.21094 -0.91796,-0.41015 -2.38281,-0.41015 -1.5039,0 -3.14453,0.74218 -1.64062,0.74219 -3.14453,1.89453 v 16.28907 h -3.67188 v -21.81641 h 3.67188 v 2.42188 q 1.71875,-1.42579 3.55469,-2.22657 1.83593,-0.80078 3.76953,-0.80078 3.53515,0 5.39062,2.12891 1.85547,2.1289 1.85547,6.13281 z"
         id="path571" />
      <path
         d="m 427.41211,619.45024 q -1.03516,0.27344 -2.26563,0.44922 -1.21093,0.17578 -2.16796,0.17578 -3.33985,0 -5.07813,-1.79687 -1.73828,-1.79688 -1.73828,-5.76172 v -11.60156 h -2.48047 v -3.08594 h 2.48047 v -6.26953 h 3.67187 v 6.26953 h 7.57813 v 3.08594 h -7.57813 v 9.9414 q 0,1.71875 0.0781,2.69532 0.0781,0.95703 0.54687,1.79687 0.42969,0.78125 1.17188,1.15235 0.76172,0.35156 2.30469,0.35156 0.89843,0 1.875,-0.25391 0.97656,-0.27344 1.40625,-0.44922 h 0.19531 z"
         id="path573" />
      <path
         d="M 450.10742,609.11821 H 434.0332 q 0,2.01172 0.60547,3.51563 0.60547,1.48437 1.66016,2.4414 1.01562,0.9375 2.40234,1.40625 1.40625,0.46875 3.08594,0.46875 2.22656,0 4.47266,-0.8789 2.26562,-0.89844 3.22265,-1.75781 h 0.19531 v 4.0039 q -1.85546,0.78125 -3.78906,1.3086 -1.93359,0.52734 -4.0625,0.52734 -5.42969,0 -8.47656,-2.92969 -3.04688,-2.94922 -3.04688,-8.35937 0,-5.35157 2.91016,-8.4961 2.92969,-3.14453 7.69531,-3.14453 4.41407,0 6.79688,2.57813 2.40234,2.57812 2.40234,7.32422 z m -3.57422,-2.8125 q -0.0195,-2.89062 -1.46484,-4.47265 -1.42578,-1.58203 -4.35547,-1.58203 -2.94922,0 -4.70703,1.73828 -1.73828,1.73828 -1.97266,4.3164 z"
         id="path575" />
      <path
         d="m 469.28711,601.83306 h -0.19531 q -0.82032,-0.19532 -1.60157,-0.27344 -0.76171,-0.0977 -1.8164,-0.0977 -1.69922,0 -3.28125,0.76172 -1.58203,0.74219 -3.04688,1.9336 v 15.48828 h -3.67187 v -21.81641 h 3.67187 v 3.22266 q 2.1875,-1.75782 3.84766,-2.48047 1.67969,-0.74219 3.41797,-0.74219 0.95703,0 1.38672,0.0586 0.42968,0.0391 1.28906,0.17579 z"
         id="path577" />
      <path
         d="m 484.48242,592.80962 h -0.19531 q -0.60547,-0.17578 -1.58203,-0.35156 -0.97656,-0.19532 -1.71875,-0.19532 -2.36328,0 -3.4375,1.05469 -1.05469,1.03516 -1.05469,3.76953 v 0.74219 h 6.62109 v 3.08594 h -6.5039 v 18.73047 h -3.67188 v -18.73047 h -2.48047 v -3.08594 h 2.48047 v -0.72266 q 0,-3.88671 1.9336,-5.95703 1.93359,-2.08984 5.58593,-2.08984 1.23047,0 2.20704,0.11719 0.99609,0.11718 1.8164,0.27343 z"
         id="path579" />
      <path
         d="m 503.75977,619.64556 h -3.65235 v -2.32422 q -0.48828,0.33203 -1.32812,0.9375 -0.82032,0.58594 -1.60157,0.9375 -0.91796,0.44922 -2.10937,0.74219 -1.19141,0.3125 -2.79297,0.3125 -2.94922,0 -5,-1.95313 -2.05078,-1.95312 -2.05078,-4.98047 0,-2.48047 1.05469,-4.0039 1.07422,-1.54297 3.04687,-2.42188 1.99219,-0.87891 4.78516,-1.19141 2.79297,-0.3125 5.99609,-0.46875 v -0.5664 q 0,-1.25 -0.44922,-2.07031 -0.42968,-0.82032 -1.25,-1.28907 -0.78125,-0.44922 -1.875,-0.60547 -1.09375,-0.15625 -2.28515,-0.15625 -1.44532,0 -3.22266,0.39063 -1.77734,0.37109 -3.67187,1.09375 h -0.19532 v -3.73047 q 1.07422,-0.29297 3.10547,-0.64453 2.03125,-0.35156 4.00391,-0.35156 2.30469,0 4.0039,0.39062 1.71875,0.3711 2.96875,1.28906 1.23047,0.89844 1.875,2.32422 0.64454,1.42578 0.64454,3.53516 z m -3.65235,-5.3711 v -6.07422 q -1.67969,0.0977 -3.96484,0.29297 -2.26563,0.19532 -3.59375,0.56641 -1.58203,0.44922 -2.5586,1.40625 -0.97656,0.9375 -0.97656,2.59766 0,1.875 1.13281,2.83203 1.13282,0.9375 3.45704,0.9375 1.93359,0 3.53515,-0.74219 1.60156,-0.76172 2.96875,-1.81641 z"
         id="path581" />
      <path
         d="m 526.96289,618.27837 q -1.83594,0.87891 -3.49609,1.36719 -1.64063,0.48828 -3.4961,0.48828 -2.36328,0 -4.33593,-0.6836 -1.97266,-0.70312 -3.37891,-2.10937 -1.42578,-1.40625 -2.20703,-3.55469 -0.78125,-2.14844 -0.78125,-5.01953 0,-5.35156 2.92969,-8.39844 2.94921,-3.04687 7.77343,-3.04687 1.875,0 3.67188,0.52734 1.8164,0.52735 3.32031,1.28906 v 4.08204 h -0.19531 q -1.67969,-1.3086 -3.47656,-2.01172 -1.77735,-0.70313 -3.47657,-0.70313 -3.125,0 -4.9414,2.10938 -1.79688,2.08984 -1.79688,6.15234 0,3.94531 1.75781,6.07422 1.77735,2.10937 4.98047,2.10937 1.11328,0 2.26563,-0.29296 1.15234,-0.29297 2.07031,-0.76172 0.80078,-0.41016 1.50391,-0.85938 0.70312,-0.46875 1.11328,-0.80078 h 0.19531 z"
         id="path583" />
      <path
         d="m 549.93164,609.11821 h -16.07422 q 0,2.01172 0.60547,3.51563 0.60547,1.48437 1.66016,2.4414 1.01562,0.9375 2.40234,1.40625 1.40625,0.46875 3.08594,0.46875 2.22656,0 4.47265,-0.8789 2.26563,-0.89844 3.22266,-1.75781 h 0.19531 v 4.0039 q -1.85547,0.78125 -3.78906,1.3086 -1.93359,0.52734 -4.0625,0.52734 -5.42969,0 -8.47656,-2.92969 -3.04688,-2.94922 -3.04688,-8.35937 0,-5.35157 2.91016,-8.4961 2.92969,-3.14453 7.69531,-3.14453 4.41406,0 6.79688,2.57813 2.40234,2.57812 2.40234,7.32422 z m -3.57422,-2.8125 q -0.0195,-2.89062 -1.46484,-4.47265 -1.42578,-1.58203 -4.35547,-1.58203 -2.94922,0 -4.70703,1.73828 -1.73828,1.73828 -1.97266,4.3164 z"
         id="path585" />
    </g>
    <g
       aria-label="Memory request signals (Input)
Memory response signals (Output)
valid (Input)
ready (Output)
good (Output)"
       transform="matrix(0.26458333,0,0,0.26458333,-7.2690008,-72.404932)"
       id="text38124"
       style="font-size:21.3333px;line-height:2;font-family:'DejaVu Sans';-inkscape-font-specification:'DejaVu Sans';letter-spacing:0px;word-spacing:0px;white-space:pre;shape-inside:url(#rect38126)">
      <path
         d="M 94.370418,407.74816 H 92.307921 V 394.3836 l -4.312493,9.09373 H 86.766263 L 82.48502,394.3836 v 13.36456 h -1.927081 v -15.51039 h 2.812496 l 4.13541,8.6354 3.999994,-8.6354 h 2.864579 z"
         id="path370" />
      <path
         d="m 108.1204,402.13359 h -8.572908 q 0,1.07291 0.322916,1.87499 0.322912,0.79167 0.885412,1.30208 0.54167,0.5 1.28125,0.75 0.75,0.25 1.64583,0.25 1.1875,0 2.38541,-0.46875 1.20834,-0.47916 1.71875,-0.9375 h 0.10417 v 2.13542 q -0.98958,0.41666 -2.02083,0.69791 -1.03125,0.28125 -2.16666,0.28125 -2.89583,0 -4.520831,-1.56249 -1.624997,-1.57292 -1.624997,-4.45833 0,-2.85416 1.552081,-4.53124 1.562497,-1.67708 4.104157,-1.67708 2.35417,0 3.625,1.37499 1.28125,1.375 1.28125,3.90625 z m -1.90625,-1.5 q -0.0104,-1.54167 -0.78125,-2.38542 -0.76042,-0.84374 -2.32291,-0.84374 -1.57292,0 -2.51042,0.92708 -0.927078,0.92708 -1.052078,2.30208 z"
         id="path372" />
      <path
         d="m 128.06828,407.74816 h -1.95833 v -6.62499 q 0,-0.75 -0.0729,-1.44791 -0.0625,-0.69792 -0.28125,-1.11459 -0.23958,-0.44791 -0.6875,-0.67708 -0.44791,-0.22916 -1.29166,-0.22916 -0.82292,0 -1.64583,0.41666 -0.82292,0.40625 -1.64583,1.04167 0.0312,0.23958 0.0521,0.5625 0.0208,0.3125 0.0208,0.62499 v 7.44791 h -1.95834 v -6.62499 q 0,-0.77083 -0.0729,-1.45833 -0.0625,-0.69792 -0.28125,-1.11458 -0.23958,-0.44792 -0.6875,-0.66667 -0.44792,-0.22916 -1.29166,-0.22916 -0.80209,0 -1.61459,0.39583 -0.80208,0.39583 -1.60416,1.01041 v 8.68749 h -1.95833 v -11.6354 h 1.95833 v 1.29167 q 0.91667,-0.76042 1.82291,-1.1875 0.91667,-0.42708 1.94792,-0.42708 1.1875,0 2.01041,0.49999 0.83333,0.5 1.23958,1.38542 1.1875,-1 2.16667,-1.4375 0.97916,-0.44791 2.09374,-0.44791 1.91667,0 2.82291,1.16666 0.91667,1.15625 0.91667,3.23958 z"
         id="path374" />
      <path
         d="m 141.75576,401.93567 q 0,2.84374 -1.45833,4.48958 -1.45834,1.64583 -3.90625,1.64583 -2.46874,0 -3.92708,-1.64583 -1.44791,-1.64584 -1.44791,-4.48958 0,-2.84375 1.44791,-4.48958 1.45834,-1.65624 3.92708,-1.65624 2.44791,0 3.90625,1.65624 1.45833,1.64583 1.45833,4.48958 z m -2.02083,0 q 0,-2.26041 -0.88542,-3.35416 -0.88541,-1.10417 -2.45833,-1.10417 -1.59375,0 -2.47916,1.10417 -0.875,1.09375 -0.875,3.35416 0,2.1875 0.88542,3.32291 0.88541,1.125 2.46874,1.125 1.5625,0 2.44791,-1.11458 0.89584,-1.125 0.89584,-3.33333 z"
         id="path376" />
      <path
         d="m 152.04741,398.24817 h -0.10417 q -0.4375,-0.10416 -0.85416,-0.14583 -0.40625,-0.0521 -0.96875,-0.0521 -0.90625,0 -1.75,0.40625 -0.84375,0.39583 -1.625,1.03125 v 8.2604 H 144.787 v -11.6354 h 1.95833 v 1.71875 q 1.16667,-0.9375 2.05208,-1.32292 0.89584,-0.39583 1.82292,-0.39583 0.51041,0 0.73958,0.0312 0.22917,0.0208 0.6875,0.0937 z"
         id="path378" />
      <path
         d="m 163.95364,396.11276 -6.79166,15.92706 h -2.09375 l 2.16667,-4.85416 -4.63541,-11.0729 h 2.125 l 3.57291,8.62499 3.60416,-8.62499 z"
         id="path380" />
      <path
         d="m 181.27653,398.24817 h -0.10417 q -0.4375,-0.10416 -0.85416,-0.14583 -0.40625,-0.0521 -0.96875,-0.0521 -0.90625,0 -1.75,0.40625 -0.84375,0.39583 -1.625,1.03125 v 8.2604 h -1.95833 v -11.6354 h 1.95833 v 1.71875 q 1.16667,-0.9375 2.05208,-1.32292 0.89584,-0.39583 1.82292,-0.39583 0.51041,0 0.73958,0.0312 0.22917,0.0208 0.6875,0.0937 z"
         id="path382" />
      <path
         d="m 192.85985,402.13359 h -8.57291 q 0,1.07291 0.32292,1.87499 0.32292,0.79167 0.88542,1.30208 0.54166,0.5 1.28124,0.75 0.75,0.25 1.64583,0.25 1.1875,0 2.38542,-0.46875 1.20833,-0.47916 1.71874,-0.9375 h 0.10417 v 2.13542 q -0.98958,0.41666 -2.02083,0.69791 -1.03125,0.28125 -2.16666,0.28125 -2.89583,0 -4.52083,-1.56249 -1.625,-1.57292 -1.625,-4.45833 0,-2.85416 1.55208,-4.53124 1.5625,-1.67708 4.10417,-1.67708 2.35416,0 3.62499,1.37499 1.28125,1.375 1.28125,3.90625 z m -1.90625,-1.5 q -0.0104,-1.54167 -0.78125,-2.38542 -0.76041,-0.84374 -2.32291,-0.84374 -1.57292,0 -2.51041,0.92708 -0.92709,0.92708 -1.05209,2.30208 z"
         id="path384" />
      <path
         d="m 205.26608,412.03982 h -1.95833 v -5.60416 q -0.90625,0.78125 -1.80208,1.16667 -0.89584,0.375 -1.9375,0.375 -2.07291,0 -3.31249,-1.59375 -1.22917,-1.60417 -1.22917,-4.41666 0,-1.5 0.42708,-2.64583 0.4375,-1.15625 1.14583,-1.9375 0.6875,-0.76041 1.61459,-1.17708 0.92708,-0.41666 1.95833,-0.41666 0.93749,0 1.65624,0.20833 0.72917,0.20833 1.47917,0.61458 l 0.125,-0.5 h 1.83333 z m -1.95833,-7.24999 v -6.58332 q -0.8125,-0.36458 -1.4375,-0.51042 -0.625,-0.14583 -1.35416,-0.14583 -1.69792,0 -2.58333,1.15625 -0.88542,1.14583 -0.88542,3.16666 0,2.04166 0.70833,3.14583 0.71875,1.09375 2.25,1.09375 0.85416,0 1.70833,-0.36459 0.85417,-0.375 1.59375,-0.95833 z"
         id="path386" />
      <path
         d="m 218.76606,407.74816 h -1.95833 v -1.29166 q -0.98958,0.78124 -1.89583,1.19791 -0.90625,0.41667 -2,0.41667 -1.83333,0 -2.85416,-1.11459 -1.02083,-1.12499 -1.02083,-3.29166 v -7.55207 h 1.95833 v 6.62499 q 0,0.88542 0.0833,1.52083 0.0833,0.625 0.35417,1.07292 0.28125,0.45833 0.72916,0.66666 0.44792,0.20834 1.30208,0.20834 0.76042,0 1.65625,-0.39584 0.90625,-0.39583 1.6875,-1.01041 v -8.68749 h 1.95833 z"
         id="path388" />
      <path
         d="m 232.35978,402.13359 h -8.5729 q 0,1.07291 0.32291,1.87499 0.32292,0.79167 0.88542,1.30208 0.54166,0.5 1.28125,0.75 0.74999,0.25 1.64583,0.25 1.18749,0 2.38541,-0.46875 1.20833,-0.47916 1.71875,-0.9375 h 0.10416 v 2.13542 q -0.98958,0.41666 -2.02083,0.69791 -1.03125,0.28125 -2.16666,0.28125 -2.89583,0 -4.52083,-1.56249 -1.62499,-1.57292 -1.62499,-4.45833 0,-2.85416 1.55208,-4.53124 1.56249,-1.67708 4.10416,-1.67708 2.35416,0 3.62499,1.37499 1.28125,1.375 1.28125,3.90625 z m -1.90625,-1.5 q -0.0104,-1.54167 -0.78125,-2.38542 -0.76041,-0.84374 -2.32291,-0.84374 -1.57291,0 -2.51041,0.92708 -0.92708,0.92708 -1.05208,2.30208 z"
         id="path390" />
      <path
         d="m 243.64101,404.394 q 0,1.59375 -1.32291,2.61458 -1.3125,1.02083 -3.59375,1.02083 -1.29166,0 -2.37499,-0.30208 -1.07292,-0.3125 -1.80208,-0.67709 v -2.19791 h 0.10416 q 0.92708,0.69792 2.0625,1.11458 1.13541,0.40625 2.17708,0.40625 1.29166,0 2.02083,-0.41666 0.72916,-0.41667 0.72916,-1.3125 0,-0.6875 -0.39583,-1.04167 -0.39583,-0.35416 -1.52083,-0.60416 -0.41667,-0.0937 -1.09375,-0.21875 -0.66666,-0.125 -1.21875,-0.27084 -1.53124,-0.40624 -2.17708,-1.18749 -0.63541,-0.79167 -0.63541,-1.9375 0,-0.71875 0.29166,-1.35417 0.30209,-0.63541 0.90625,-1.13541 0.58334,-0.48958 1.47917,-0.77083 0.90625,-0.29167 2.02083,-0.29167 1.04166,0 2.10416,0.26042 1.07292,0.25 1.78125,0.61458 v 2.09375 h -0.10417 q -0.75,-0.55209 -1.82291,-0.92708 -1.07292,-0.38542 -2.10417,-0.38542 -1.07291,0 -1.81249,0.41667 -0.73958,0.40624 -0.73958,1.21874 0,0.71875 0.44791,1.08333 0.4375,0.36459 1.41667,0.59375 0.54166,0.125 1.20833,0.25 0.67708,0.125 1.125,0.22917 1.36458,0.3125 2.10416,1.07291 0.73958,0.77084 0.73958,2.04167 z"
         id="path392" />
      <path
         d="m 252.48474,407.64399 q -0.55208,0.14584 -1.20833,0.23959 -0.64583,0.0937 -1.15625,0.0937 -1.78124,0 -2.70832,-0.95834 -0.92709,-0.95833 -0.92709,-3.07291 v -6.18749 h -1.32291 v -1.64583 h 1.32291 v -3.34374 h 1.95833 v 3.34374 h 4.04166 v 1.64583 h -4.04166 v 5.30208 q 0,0.91666 0.0417,1.43749 0.0417,0.51042 0.29167,0.95834 0.22916,0.41666 0.625,0.61458 0.40624,0.1875 1.22916,0.1875 0.47917,0 1,-0.13542 0.52083,-0.14583 0.75,-0.23958 h 0.10416 z"
         id="path394" />
      <path
         d="m 270.66181,404.394 q 0,1.59375 -1.32292,2.61458 -1.31249,1.02083 -3.59374,1.02083 -1.29167,0 -2.375,-0.30208 -1.07291,-0.3125 -1.80208,-0.67709 v -2.19791 h 0.10417 q 0.92708,0.69792 2.0625,1.11458 1.13541,0.40625 2.17708,0.40625 1.29166,0 2.02083,-0.41666 0.72916,-0.41667 0.72916,-1.3125 0,-0.6875 -0.39583,-1.04167 -0.39583,-0.35416 -1.52083,-0.60416 -0.41667,-0.0937 -1.09375,-0.21875 -0.66667,-0.125 -1.21875,-0.27084 -1.53125,-0.40624 -2.17708,-1.18749 -0.63541,-0.79167 -0.63541,-1.9375 0,-0.71875 0.29166,-1.35417 0.30209,-0.63541 0.90625,-1.13541 0.58333,-0.48958 1.47917,-0.77083 0.90624,-0.29167 2.02083,-0.29167 1.04166,0 2.10416,0.26042 1.07291,0.25 1.78125,0.61458 v 2.09375 h -0.10417 q -0.75,-0.55209 -1.82291,-0.92708 -1.07292,-0.38542 -2.10417,-0.38542 -1.07291,0 -1.8125,0.41667 -0.73958,0.40624 -0.73958,1.21874 0,0.71875 0.44792,1.08333 0.4375,0.36459 1.41666,0.59375 0.54167,0.125 1.20833,0.25 0.67709,0.125 1.125,0.22917 1.36458,0.3125 2.10417,1.07291 0.73958,0.77084 0.73958,2.04167 z"
         id="path396" />
      <path
         d="m 275.56805,394.16485 h -2.20833 v -2.03125 h 2.20833 z m -0.125,13.58331 h -1.95833 v -11.6354 h 1.95833 z"
         id="path398" />
      <path
         d="m 288.75553,406.42525 q 0,2.95832 -1.34375,4.34374 -1.34375,1.38541 -4.13541,1.38541 -0.92708,0 -1.8125,-0.13541 -0.875,-0.125 -1.72916,-0.36459 v -1.99999 h 0.10416 q 0.47917,0.1875 1.52083,0.45833 1.04167,0.28125 2.08333,0.28125 1,0 1.65625,-0.23958 0.65625,-0.23959 1.02083,-0.66667 0.36459,-0.40625 0.52084,-0.97916 0.15625,-0.57292 0.15625,-1.28125 v -1.0625 q -0.88542,0.70833 -1.69792,1.0625 -0.80208,0.34375 -2.05208,0.34375 -2.08333,0 -3.31249,-1.5 -1.21875,-1.51042 -1.21875,-4.24999 0,-1.5 0.41666,-2.58333 0.42709,-1.09375 1.15625,-1.88542 0.67709,-0.73958 1.64583,-1.14583 0.96875,-0.41666 1.92708,-0.41666 1.01042,0 1.6875,0.20833 0.6875,0.19791 1.44792,0.61458 l 0.125,-0.5 h 1.83333 z m -1.95833,-1.875 v -6.34374 q -0.78125,-0.35417 -1.45834,-0.5 -0.66666,-0.15625 -1.33333,-0.15625 -1.61458,0 -2.54166,1.08333 -0.92708,1.08333 -0.92708,3.14583 0,1.95833 0.6875,2.96874 0.6875,1.01042 2.28124,1.01042 0.85417,0 1.70834,-0.32292 0.86458,-0.33333 1.58333,-0.88541 z"
         id="path400" />
      <path
         d="m 302.33883,407.74816 h -1.95833 v -6.62499 q 0,-0.80208 -0.0937,-1.5 -0.0937,-0.70833 -0.34375,-1.10416 -0.26041,-0.4375 -0.74999,-0.64583 -0.48959,-0.21875 -1.27084,-0.21875 -0.80208,0 -1.67708,0.39583 -0.875,0.39583 -1.67708,1.01041 v 8.68749 h -1.95833 v -11.6354 h 1.95833 v 1.29167 q 0.91667,-0.76042 1.89583,-1.1875 0.97917,-0.42708 2.01042,-0.42708 1.88541,0 2.87499,1.13541 0.98958,1.13541 0.98958,3.27083 z"
         id="path402" />
      <path
         d="m 315.15132,407.74816 h -1.94791 v -1.23958 q -0.26042,0.17708 -0.70834,0.5 -0.4375,0.3125 -0.85416,0.5 -0.48958,0.23958 -1.125,0.39583 -0.63542,0.16667 -1.48958,0.16667 -1.57292,0 -2.66666,-1.04167 -1.09375,-1.04166 -1.09375,-2.65625 0,-1.32291 0.5625,-2.13541 0.57291,-0.82291 1.62499,-1.29166 1.0625,-0.46875 2.55208,-0.63542 1.48959,-0.16667 3.19792,-0.25 v -0.30208 q 0,-0.66667 -0.23959,-1.10417 -0.22916,-0.4375 -0.66666,-0.68749 -0.41667,-0.23959 -1,-0.32292 -0.58333,-0.0833 -1.21875,-0.0833 -0.77083,0 -1.71875,0.20833 -0.94791,0.19792 -1.95833,0.58333 h -0.10416 v -1.98958 q 0.57291,-0.15625 1.65624,-0.34375 1.08334,-0.1875 2.13542,-0.1875 1.22916,0 2.13541,0.20833 0.91667,0.19792 1.58333,0.6875 0.65625,0.47917 1,1.23959 0.34375,0.76041 0.34375,1.88541 z m -1.94791,-2.86458 V 401.644 q -0.89584,0.0521 -2.11458,0.15625 -1.20834,0.10417 -1.91667,0.30209 -0.84375,0.23958 -1.36458,0.74999 -0.52083,0.5 -0.52083,1.38542 0,1 0.60416,1.51041 0.60417,0.5 1.84375,0.5 1.03125,0 1.88541,-0.39583 0.85417,-0.40625 1.58334,-0.96875 z"
         id="path404" />
      <path
         d="m 320.90132,407.74816 h -1.95833 v -16.20831 h 1.95833 z"
         id="path406" />
      <path
         d="m 333.0888,404.394 q 0,1.59375 -1.32292,2.61458 -1.3125,1.02083 -3.59374,1.02083 -1.29167,0 -2.375,-0.30208 -1.07292,-0.3125 -1.80208,-0.67709 v -2.19791 h 0.10417 q 0.92708,0.69792 2.06249,1.11458 1.13542,0.40625 2.17708,0.40625 1.29167,0 2.02083,-0.41666 0.72917,-0.41667 0.72917,-1.3125 0,-0.6875 -0.39583,-1.04167 -0.39584,-0.35416 -1.52084,-0.60416 -0.41666,-0.0937 -1.09374,-0.21875 -0.66667,-0.125 -1.21875,-0.27084 -1.53125,-0.40624 -2.17708,-1.18749 -0.63542,-0.79167 -0.63542,-1.9375 0,-0.71875 0.29167,-1.35417 0.30208,-0.63541 0.90625,-1.13541 0.58333,-0.48958 1.47916,-0.77083 0.90625,-0.29167 2.02083,-0.29167 1.04167,0 2.10417,0.26042 1.07291,0.25 1.78124,0.61458 v 2.09375 h -0.10416 q -0.75,-0.55209 -1.82292,-0.92708 -1.07291,-0.38542 -2.10416,-0.38542 -1.07292,0 -1.8125,0.41667 -0.73958,0.40624 -0.73958,1.21874 0,0.71875 0.44792,1.08333 0.43749,0.36459 1.41666,0.59375 0.54167,0.125 1.20833,0.25 0.67708,0.125 1.125,0.22917 1.36458,0.3125 2.10416,1.07291 0.73959,0.77084 0.73959,2.04167 z"
         id="path408" />
      <path
         d="m 349.62001,412.03982 h -2.38541 q -1.84375,-2.11458 -2.86458,-4.61458 -1.02083,-2.49999 -1.02083,-5.6354 0,-3.13542 1.02083,-5.63541 1.02083,-2.5 2.86458,-4.61458 h 2.38541 v 0.10417 q -0.84375,0.76041 -1.61458,1.76041 -0.76041,0.98958 -1.41666,2.3125 -0.625,1.28125 -1.02083,2.82291 -0.38542,1.54167 -0.38542,3.25 0,1.78124 0.375,3.26041 0.38542,1.47916 1.03125,2.81249 0.625,1.28125 1.42708,2.3125 0.80208,1.04166 1.60416,1.76041 z"
         id="path410" />
      <path
         d="m 358.70335,407.74816 h -6.12499 v -1.58333 h 2.03124 V 393.8211 h -2.03124 v -1.58333 h 6.12499 v 1.58333 h -2.03125 v 12.34373 h 2.03125 z"
         id="path412" />
      <path
         d="m 371.78663,407.74816 h -1.95833 v -6.62499 q 0,-0.80208 -0.0937,-1.5 -0.0937,-0.70833 -0.34375,-1.10416 -0.26041,-0.4375 -0.75,-0.64583 -0.48958,-0.21875 -1.27083,-0.21875 -0.80208,0 -1.67708,0.39583 -0.875,0.39583 -1.67708,1.01041 v 8.68749 h -1.95833 v -11.6354 h 1.95833 v 1.29167 q 0.91667,-0.76042 1.89583,-1.1875 0.97917,-0.42708 2.01042,-0.42708 1.88541,0 2.87499,1.13541 0.98958,1.13541 0.98958,3.27083 z"
         id="path414" />
      <path
         d="m 385.79705,401.78984 q 0,1.41666 -0.40625,2.59374 -0.40625,1.16667 -1.14583,1.97917 -0.6875,0.77083 -1.625,1.19791 -0.92708,0.41667 -1.96875,0.41667 -0.90624,0 -1.64583,-0.19792 -0.72916,-0.19792 -1.48958,-0.61458 v 4.87499 h -1.95833 v -15.92706 h 1.95833 v 1.21875 q 0.78125,-0.65625 1.75,-1.09375 0.97916,-0.44791 2.08333,-0.44791 2.10416,0 3.27083,1.59374 1.17708,1.58333 1.17708,4.40625 z m -2.02083,0.0521 q 0,-2.10416 -0.71875,-3.14583 -0.71875,-1.04166 -2.20833,-1.04166 -0.84375,0 -1.69791,0.36458 -0.85417,0.36458 -1.63542,0.95833 v 6.59374 q 0.83333,0.375 1.42708,0.51042 0.60417,0.13541 1.36458,0.13541 1.63542,0 2.55208,-1.10416 0.91667,-1.10417 0.91667,-3.27083 z"
         id="path416" />
      <path
         d="m 398.49493,407.74816 h -1.95833 v -1.29166 q -0.98959,0.78124 -1.89583,1.19791 -0.90625,0.41667 -2,0.41667 -1.83333,0 -2.85416,-1.11459 -1.02084,-1.12499 -1.02084,-3.29166 v -7.55207 h 1.95833 v 6.62499 q 0,0.88542 0.0833,1.52083 0.0833,0.625 0.35416,1.07292 0.28125,0.45833 0.72917,0.66666 0.44792,0.20834 1.30208,0.20834 0.76042,0 1.65625,-0.39584 0.90625,-0.39583 1.6875,-1.01041 v -8.68749 h 1.95833 z"
         id="path418" />
      <path
         d="m 408.39077,407.64399 q -0.55209,0.14584 -1.20834,0.23959 -0.64583,0.0937 -1.15624,0.0937 -1.78125,0 -2.70833,-0.95834 -0.92709,-0.95833 -0.92709,-3.07291 v -6.18749 h -1.32291 v -1.64583 h 1.32291 v -3.34374 h 1.95833 v 3.34374 h 4.04167 v 1.64583 h -4.04167 v 5.30208 q 0,0.91666 0.0417,1.43749 0.0417,0.51042 0.29167,0.95834 0.22916,0.41666 0.625,0.61458 0.40625,0.1875 1.22916,0.1875 0.47917,0 1,-0.13542 0.52083,-0.14583 0.75,-0.23958 h 0.10417 z"
         id="path420" />
      <path
         d="m 416.63032,401.78984 q 0,3.13541 -1.02083,5.6354 -1.02084,2.5 -2.86458,4.61458 h -2.38542 v -0.10417 q 0.80209,-0.71875 1.60417,-1.76041 0.8125,-1.03125 1.42708,-2.3125 0.64583,-1.33333 1.02083,-2.81249 0.38542,-1.47917 0.38542,-3.26041 0,-1.70833 -0.38542,-3.25 -0.38541,-1.54166 -1.02083,-2.82291 -0.65625,-1.32292 -1.42708,-2.3125 -0.76042,-1 -1.60417,-1.76041 v -0.10417 h 2.38542 q 1.84374,2.11458 2.86458,4.61458 1.02083,2.49999 1.02083,5.63541 z"
         id="path422" />
      <path
         d="m 94.370418,450.41476 h -2.062497 v -13.36457 l -4.312493,9.09374 h -1.229165 l -4.281243,-9.09374 v 13.36457 h -1.927081 v -15.5104 h 2.812496 l 4.13541,8.63541 3.999994,-8.63541 h 2.864579 z"
         id="path424" />
      <path
         d="m 108.1204,444.80018 h -8.572908 q 0,1.07292 0.322916,1.875 0.322912,0.79166 0.885412,1.30208 0.54167,0.5 1.28125,0.75 0.75,0.25 1.64583,0.25 1.1875,0 2.38541,-0.46875 1.20834,-0.47917 1.71875,-0.9375 h 0.10417 v 2.13541 q -0.98958,0.41667 -2.02083,0.69792 -1.03125,0.28125 -2.16666,0.28125 -2.89583,0 -4.520831,-1.5625 -1.624997,-1.57291 -1.624997,-4.45833 0,-2.85416 1.552081,-4.53124 1.562497,-1.67708 4.104157,-1.67708 2.35417,0 3.625,1.375 1.28125,1.375 1.28125,3.90624 z m -1.90625,-1.5 q -0.0104,-1.54166 -0.78125,-2.38541 -0.76042,-0.84375 -2.32291,-0.84375 -1.57292,0 -2.51042,0.92708 -0.927078,0.92709 -1.052078,2.30208 z"
         id="path426" />
      <path
         d="m 128.06828,450.41476 h -1.95833 v -6.62499 q 0,-0.75 -0.0729,-1.44792 -0.0625,-0.69791 -0.28125,-1.11458 -0.23958,-0.44792 -0.6875,-0.67708 -0.44791,-0.22917 -1.29166,-0.22917 -0.82292,0 -1.64583,0.41667 -0.82292,0.40625 -1.64583,1.04166 0.0312,0.23959 0.0521,0.5625 0.0208,0.3125 0.0208,0.625 v 7.44791 h -1.95834 v -6.62499 q 0,-0.77084 -0.0729,-1.45834 -0.0625,-0.69791 -0.28125,-1.11458 -0.23958,-0.44791 -0.6875,-0.66666 -0.44792,-0.22917 -1.29166,-0.22917 -0.80209,0 -1.61459,0.39583 -0.80208,0.39584 -1.60416,1.01042 v 8.68749 h -1.95833 v -11.6354 h 1.95833 v 1.29166 q 0.91667,-0.76041 1.82291,-1.1875 0.91667,-0.42708 1.94792,-0.42708 1.1875,0 2.01041,0.5 0.83333,0.5 1.23958,1.38541 1.1875,-0.99999 2.16667,-1.43749 0.97916,-0.44792 2.09374,-0.44792 1.91667,0 2.82291,1.16667 0.91667,1.15624 0.91667,3.23957 z"
         id="path428" />
      <path
         d="m 141.75576,444.60226 q 0,2.84375 -1.45833,4.48958 -1.45834,1.64583 -3.90625,1.64583 -2.46874,0 -3.92708,-1.64583 -1.44791,-1.64583 -1.44791,-4.48958 0,-2.84374 1.44791,-4.48957 1.45834,-1.65625 3.92708,-1.65625 2.44791,0 3.90625,1.65625 1.45833,1.64583 1.45833,4.48957 z m -2.02083,0 q 0,-2.26041 -0.88542,-3.35416 -0.88541,-1.10416 -2.45833,-1.10416 -1.59375,0 -2.47916,1.10416 -0.875,1.09375 -0.875,3.35416 0,2.1875 0.88542,3.32292 0.88541,1.12499 2.46874,1.12499 1.5625,0 2.44791,-1.11458 0.89584,-1.125 0.89584,-3.33333 z"
         id="path430" />
      <path
         d="m 152.04741,440.91477 h -0.10417 q -0.4375,-0.10417 -0.85416,-0.14583 -0.40625,-0.0521 -0.96875,-0.0521 -0.90625,0 -1.75,0.40625 -0.84375,0.39584 -1.625,1.03125 v 8.26041 H 144.787 v -11.6354 h 1.95833 v 1.71874 q 1.16667,-0.93749 2.05208,-1.32291 0.89584,-0.39583 1.82292,-0.39583 0.51041,0 0.73958,0.0312 0.22917,0.0208 0.6875,0.0937 z"
         id="path432" />
      <path
         d="m 163.95364,438.77936 -6.79166,15.92705 h -2.09375 l 2.16667,-4.85415 -4.63541,-11.0729 h 2.125 l 3.57291,8.62498 3.60416,-8.62498 z"
         id="path434" />
      <path
         d="m 181.27653,440.91477 h -0.10417 q -0.4375,-0.10417 -0.85416,-0.14583 -0.40625,-0.0521 -0.96875,-0.0521 -0.90625,0 -1.75,0.40625 -0.84375,0.39584 -1.625,1.03125 v 8.26041 h -1.95833 v -11.6354 h 1.95833 v 1.71874 q 1.16667,-0.93749 2.05208,-1.32291 0.89584,-0.39583 1.82292,-0.39583 0.51041,0 0.73958,0.0312 0.22917,0.0208 0.6875,0.0937 z"
         id="path436" />
      <path
         d="m 192.85985,444.80018 h -8.57291 q 0,1.07292 0.32292,1.875 0.32292,0.79166 0.88542,1.30208 0.54166,0.5 1.28124,0.75 0.75,0.25 1.64583,0.25 1.1875,0 2.38542,-0.46875 1.20833,-0.47917 1.71874,-0.9375 h 0.10417 v 2.13541 q -0.98958,0.41667 -2.02083,0.69792 -1.03125,0.28125 -2.16666,0.28125 -2.89583,0 -4.52083,-1.5625 -1.625,-1.57291 -1.625,-4.45833 0,-2.85416 1.55208,-4.53124 1.5625,-1.67708 4.10417,-1.67708 2.35416,0 3.62499,1.375 1.28125,1.375 1.28125,3.90624 z m -1.90625,-1.5 q -0.0104,-1.54166 -0.78125,-2.38541 -0.76041,-0.84375 -2.32291,-0.84375 -1.57292,0 -2.51041,0.92708 -0.92709,0.92709 -1.05209,2.30208 z"
         id="path438" />
      <path
         d="m 204.14108,447.06059 q 0,1.59375 -1.32292,2.61458 -1.31249,1.02083 -3.59374,1.02083 -1.29166,0 -2.375,-0.30208 -1.07291,-0.3125 -1.80208,-0.67708 v -2.19791 h 0.10417 q 0.92708,0.69791 2.0625,1.11458 1.13541,0.40625 2.17708,0.40625 1.29166,0 2.02083,-0.41667 0.72916,-0.41666 0.72916,-1.3125 0,-0.6875 -0.39583,-1.04166 -0.39583,-0.35417 -1.52083,-0.60417 -0.41667,-0.0937 -1.09375,-0.21875 -0.66667,-0.125 -1.21875,-0.27083 -1.53125,-0.40625 -2.17708,-1.1875 -0.63541,-0.79166 -0.63541,-1.9375 0,-0.71874 0.29166,-1.35416 0.30209,-0.63542 0.90625,-1.13541 0.58333,-0.48959 1.47917,-0.77084 0.90624,-0.29166 2.02083,-0.29166 1.04166,0 2.10416,0.26041 1.07291,0.25 1.78125,0.61459 v 2.09374 h -0.10417 q -0.75,-0.55208 -1.82291,-0.92708 -1.07292,-0.38542 -2.10417,-0.38542 -1.07291,0 -1.81249,0.41667 -0.73959,0.40625 -0.73959,1.21875 0,0.71875 0.44792,1.08333 0.4375,0.36458 1.41666,0.59375 0.54167,0.125 1.20834,0.25 0.67708,0.125 1.12499,0.22917 1.36458,0.31249 2.10417,1.07291 0.73958,0.77083 0.73958,2.04166 z"
         id="path440" />
      <path
         d="m 217.18272,444.45643 q 0,1.41667 -0.40625,2.59375 -0.40625,1.16666 -1.14583,1.97916 -0.6875,0.77083 -1.625,1.19792 -0.92708,0.41666 -1.96874,0.41666 -0.90625,0 -1.64583,-0.19791 -0.72917,-0.19792 -1.48958,-0.61459 v 4.87499 h -1.95833 v -15.92705 h 1.95833 v 1.21874 q 0.78124,-0.65624 1.74999,-1.09374 0.97917,-0.44792 2.08333,-0.44792 2.10417,0 3.27083,1.59375 1.17708,1.58333 1.17708,4.40624 z m -2.02083,0.0521 q 0,-2.10416 -0.71875,-3.14582 -0.71875,-1.04167 -2.20833,-1.04167 -0.84374,0 -1.69791,0.36458 -0.85417,0.36459 -1.63541,0.95834 v 6.59374 q 0.83333,0.37499 1.42708,0.51041 0.60416,0.13542 1.36458,0.13542 1.63541,0 2.55208,-1.10417 0.91666,-1.10416 0.91666,-3.27083 z"
         id="path442" />
      <path
         d="m 230.15146,444.60226 q 0,2.84375 -1.45834,4.48958 -1.45833,1.64583 -3.90624,1.64583 -2.46875,0 -3.92708,-1.64583 -1.44791,-1.64583 -1.44791,-4.48958 0,-2.84374 1.44791,-4.48957 1.45833,-1.65625 3.92708,-1.65625 2.44791,0 3.90624,1.65625 1.45834,1.64583 1.45834,4.48957 z m -2.02083,0 q 0,-2.26041 -0.88542,-3.35416 -0.88542,-1.10416 -2.45833,-1.10416 -1.59375,0 -2.47916,1.10416 -0.875,1.09375 -0.875,3.35416 0,2.1875 0.88541,3.32292 0.88542,1.12499 2.46875,1.12499 1.5625,0 2.44791,-1.11458 0.89584,-1.125 0.89584,-3.33333 z"
         id="path444" />
      <path
         d="m 242.91185,450.41476 h -1.95833 v -6.62499 q 0,-0.80209 -0.0937,-1.5 -0.0937,-0.70833 -0.34375,-1.10417 -0.26042,-0.4375 -0.75,-0.64583 -0.48958,-0.21875 -1.27083,-0.21875 -0.80208,0 -1.67708,0.39583 -0.875,0.39584 -1.67708,1.01042 v 8.68749 h -1.95833 v -11.6354 h 1.95833 v 1.29166 q 0.91666,-0.76041 1.89583,-1.1875 0.97916,-0.42708 2.01041,-0.42708 1.88541,0 2.875,1.13542 0.98958,1.13541 0.98958,3.27082 z"
         id="path446" />
      <path
         d="m 254.99517,447.06059 q 0,1.59375 -1.32292,2.61458 -1.3125,1.02083 -3.59374,1.02083 -1.29167,0 -2.375,-0.30208 -1.07291,-0.3125 -1.80208,-0.67708 v -2.19791 h 0.10417 q 0.92708,0.69791 2.06249,1.11458 1.13542,0.40625 2.17708,0.40625 1.29167,0 2.02083,-0.41667 0.72917,-0.41666 0.72917,-1.3125 0,-0.6875 -0.39583,-1.04166 -0.39584,-0.35417 -1.52083,-0.60417 -0.41667,-0.0937 -1.09375,-0.21875 -0.66667,-0.125 -1.21875,-0.27083 -1.53125,-0.40625 -2.17708,-1.1875 -0.63542,-0.79166 -0.63542,-1.9375 0,-0.71874 0.29167,-1.35416 0.30208,-0.63542 0.90625,-1.13541 0.58333,-0.48959 1.47916,-0.77084 0.90625,-0.29166 2.02083,-0.29166 1.04167,0 2.10417,0.26041 1.07291,0.25 1.78124,0.61459 v 2.09374 h -0.10416 q -0.75,-0.55208 -1.82292,-0.92708 -1.07291,-0.38542 -2.10416,-0.38542 -1.07291,0 -1.8125,0.41667 -0.73958,0.40625 -0.73958,1.21875 0,0.71875 0.44792,1.08333 0.4375,0.36458 1.41666,0.59375 0.54167,0.125 1.20833,0.25 0.67709,0.125 1.125,0.22917 1.36458,0.31249 2.10416,1.07291 0.73959,0.77083 0.73959,2.04166 z"
         id="path448" />
      <path
         d="m 267.53681,444.80018 h -8.5729 q 0,1.07292 0.32291,1.875 0.32292,0.79166 0.88542,1.30208 0.54167,0.5 1.28125,0.75 0.75,0.25 1.64583,0.25 1.1875,0 2.38541,-0.46875 1.20833,-0.47917 1.71875,-0.9375 h 0.10416 v 2.13541 q -0.98958,0.41667 -2.02083,0.69792 -1.03124,0.28125 -2.16666,0.28125 -2.89583,0 -4.52082,-1.5625 -1.625,-1.57291 -1.625,-4.45833 0,-2.85416 1.55208,-4.53124 1.5625,-1.67708 4.10416,-1.67708 2.35416,0 3.62499,1.375 1.28125,1.375 1.28125,3.90624 z m -1.90625,-1.5 q -0.0104,-1.54166 -0.78124,-2.38541 -0.76042,-0.84375 -2.32292,-0.84375 -1.57291,0 -2.51041,0.92708 -0.92708,0.92709 -1.05208,2.30208 z"
         id="path450" />
      <path
         d="m 286.31803,447.06059 q 0,1.59375 -1.32292,2.61458 -1.31249,1.02083 -3.59374,1.02083 -1.29167,0 -2.375,-0.30208 -1.07291,-0.3125 -1.80208,-0.67708 v -2.19791 h 0.10417 q 0.92708,0.69791 2.0625,1.11458 1.13541,0.40625 2.17708,0.40625 1.29166,0 2.02083,-0.41667 0.72916,-0.41666 0.72916,-1.3125 0,-0.6875 -0.39583,-1.04166 -0.39583,-0.35417 -1.52083,-0.60417 -0.41667,-0.0937 -1.09375,-0.21875 -0.66667,-0.125 -1.21875,-0.27083 -1.53125,-0.40625 -2.17708,-1.1875 -0.63541,-0.79166 -0.63541,-1.9375 0,-0.71874 0.29166,-1.35416 0.30208,-0.63542 0.90625,-1.13541 0.58333,-0.48959 1.47916,-0.77084 0.90625,-0.29166 2.02083,-0.29166 1.04167,0 2.10417,0.26041 1.07291,0.25 1.78125,0.61459 v 2.09374 h -0.10417 q -0.75,-0.55208 -1.82292,-0.92708 -1.07291,-0.38542 -2.10416,-0.38542 -1.07291,0 -1.8125,0.41667 -0.73958,0.40625 -0.73958,1.21875 0,0.71875 0.44792,1.08333 0.4375,0.36458 1.41666,0.59375 0.54167,0.125 1.20833,0.25 0.67709,0.125 1.125,0.22917 1.36458,0.31249 2.10417,1.07291 0.73958,0.77083 0.73958,2.04166 z"
         id="path452" />
      <path
         d="m 291.22427,436.83144 h -2.20833 v -2.03124 h 2.20833 z m -0.125,13.58332 h -1.95833 v -11.6354 h 1.95833 z"
         id="path454" />
      <path
         d="m 304.41175,449.09184 q 0,2.95833 -1.34375,4.34374 -1.34375,1.38542 -4.13541,1.38542 -0.92708,0 -1.8125,-0.13542 -0.875,-0.125 -1.72916,-0.36458 v -2 h 0.10416 q 0.47917,0.1875 1.52083,0.45833 1.04167,0.28125 2.08333,0.28125 1,0 1.65625,-0.23958 0.65625,-0.23958 1.02083,-0.66666 0.36459,-0.40625 0.52084,-0.97917 0.15625,-0.57292 0.15625,-1.28125 v -1.0625 q -0.88542,0.70834 -1.69792,1.0625 -0.80208,0.34375 -2.05208,0.34375 -2.08333,0 -3.31249,-1.5 -1.21875,-1.51041 -1.21875,-4.24999 0,-1.5 0.41666,-2.58333 0.42709,-1.09375 1.15625,-1.88541 0.67708,-0.73958 1.64583,-1.14583 0.96875,-0.41667 1.92708,-0.41667 1.01042,0 1.6875,0.20833 0.6875,0.19792 1.44792,0.61459 l 0.125,-0.5 h 1.83333 z m -1.95833,-1.875 v -6.34374 q -0.78125,-0.35416 -1.45834,-0.5 -0.66666,-0.15625 -1.33333,-0.15625 -1.61458,0 -2.54166,1.08334 -0.92708,1.08333 -0.92708,3.14582 0,1.95833 0.6875,2.96875 0.6875,1.01041 2.28124,1.01041 0.85417,0 1.70833,-0.32291 0.86459,-0.33333 1.58334,-0.88542 z"
         id="path456" />
      <path
         d="m 317.99507,450.41476 h -1.95833 v -6.62499 q 0,-0.80209 -0.0937,-1.5 -0.0937,-0.70833 -0.34375,-1.10417 -0.26042,-0.4375 -0.75,-0.64583 -0.48958,-0.21875 -1.27083,-0.21875 -0.80208,0 -1.67708,0.39583 -0.875,0.39584 -1.67708,1.01042 v 8.68749 h -1.95833 v -11.6354 h 1.95833 v 1.29166 q 0.91666,-0.76041 1.89583,-1.1875 0.97916,-0.42708 2.01041,-0.42708 1.88541,0 2.875,1.13542 0.98958,1.13541 0.98958,3.27082 z"
         id="path458" />
      <path
         d="m 330.80754,450.41476 h -1.94791 v -1.23959 q -0.26042,0.17709 -0.70834,0.5 -0.4375,0.3125 -0.85416,0.5 -0.48958,0.23959 -1.125,0.39583 -0.63542,0.16667 -1.48958,0.16667 -1.57292,0 -2.66666,-1.04166 -1.09375,-1.04167 -1.09375,-2.65625 0,-1.32291 0.5625,-2.13541 0.57291,-0.82292 1.62499,-1.29167 1.0625,-0.46875 2.55208,-0.63541 1.48958,-0.16667 3.19792,-0.25 v -0.30209 q 0,-0.66666 -0.23959,-1.10416 -0.22916,-0.4375 -0.66666,-0.6875 -0.41667,-0.23958 -1,-0.32292 -0.58333,-0.0833 -1.21875,-0.0833 -0.77083,0 -1.71875,0.20833 -0.94791,0.19792 -1.95833,0.58334 h -0.10416 v -1.98958 q 0.57291,-0.15625 1.65624,-0.34375 1.08334,-0.1875 2.13542,-0.1875 1.22916,0 2.13541,0.20833 0.91667,0.19792 1.58333,0.6875 0.65625,0.47917 1,1.23958 0.34375,0.76042 0.34375,1.88541 z m -1.94791,-2.86458 v -3.23958 q -0.89584,0.0521 -2.11458,0.15625 -1.20834,0.10416 -1.91667,0.30208 -0.84375,0.23958 -1.36458,0.75 -0.52083,0.5 -0.52083,1.38541 0,1 0.60416,1.51042 0.60417,0.5 1.84375,0.5 1.03125,0 1.88541,-0.39584 0.85417,-0.40624 1.58334,-0.96874 z"
         id="path460" />
      <path
         d="m 336.55753,450.41476 h -1.95833 v -16.20831 h 1.95833 z"
         id="path462" />
      <path
         d="m 348.74503,447.06059 q 0,1.59375 -1.32291,2.61458 -1.3125,1.02083 -3.59375,1.02083 -1.29166,0 -2.375,-0.30208 -1.07291,-0.3125 -1.80208,-0.67708 v -2.19791 h 0.10417 q 0.92708,0.69791 2.0625,1.11458 1.13541,0.40625 2.17708,0.40625 1.29166,0 2.02083,-0.41667 0.72916,-0.41666 0.72916,-1.3125 0,-0.6875 -0.39583,-1.04166 -0.39583,-0.35417 -1.52083,-0.60417 -0.41667,-0.0937 -1.09375,-0.21875 -0.66666,-0.125 -1.21875,-0.27083 -1.53124,-0.40625 -2.17708,-1.1875 -0.63541,-0.79166 -0.63541,-1.9375 0,-0.71874 0.29166,-1.35416 0.30209,-0.63542 0.90625,-1.13541 0.58333,-0.48959 1.47917,-0.77084 0.90625,-0.29166 2.02083,-0.29166 1.04166,0 2.10416,0.26041 1.07291,0.25 1.78125,0.61459 v 2.09374 h -0.10417 q -0.75,-0.55208 -1.82291,-0.92708 -1.07292,-0.38542 -2.10417,-0.38542 -1.07291,0 -1.81249,0.41667 -0.73959,0.40625 -0.73959,1.21875 0,0.71875 0.44792,1.08333 0.4375,0.36458 1.41666,0.59375 0.54167,0.125 1.20834,0.25 0.67708,0.125 1.12499,0.22917 1.36459,0.31249 2.10417,1.07291 0.73958,0.77083 0.73958,2.04166 z"
         id="path464" />
      <path
         d="m 365.27623,454.70641 h -2.38541 q -1.84375,-2.11458 -2.86458,-4.61457 -1.02083,-2.5 -1.02083,-5.63541 0,-3.13541 1.02083,-5.63541 1.02083,-2.49999 2.86458,-4.61457 h 2.38541 v 0.10416 q -0.84375,0.76042 -1.61458,1.76042 -0.76041,0.98958 -1.41666,2.31249 -0.625,1.28125 -1.02083,2.82292 -0.38542,1.54166 -0.38542,3.24999 0,1.78125 0.375,3.26041 0.38541,1.47917 1.03125,2.8125 0.625,1.28125 1.42708,2.31249 0.80208,1.04167 1.60416,1.76042 z"
         id="path466" />
      <path
         d="m 380.45331,436.68561 q 0.94791,1.04167 1.44791,2.55208 0.51042,1.51041 0.51042,3.42708 0,1.91666 -0.52084,3.43749 -0.51041,1.51042 -1.43749,2.52083 -0.95833,1.05208 -2.27083,1.58333 -1.30208,0.53125 -2.97916,0.53125 -1.63542,0 -2.97917,-0.54166 -1.33333,-0.54167 -2.27083,-1.57292 -0.9375,-1.03125 -1.44791,-2.53124 -0.5,-1.5 -0.5,-3.42708 0,-1.89583 0.5,-3.39583 0.5,-1.51041 1.45833,-2.58333 0.91667,-1.02083 2.27083,-1.5625 1.36458,-0.54166 2.96875,-0.54166 1.66666,0 2.98957,0.55208 1.33334,0.54167 2.26042,1.55208 z m -0.1875,5.97916 q 0,-3.02083 -1.35417,-4.65625 -1.35416,-1.64583 -3.69791,-1.64583 -2.36458,0 -3.71874,1.64583 -1.34375,1.63542 -1.34375,4.65625 0,3.05208 1.375,4.67707 1.375,1.61458 3.68749,1.61458 2.3125,0 3.67708,-1.61458 1.375,-1.62499 1.375,-4.67707 z"
         id="path468" />
      <path
         d="m 395.17202,450.41476 h -1.95833 v -1.29167 q -0.98958,0.78125 -1.89583,1.19792 -0.90625,0.41666 -2,0.41666 -1.83333,0 -2.85416,-1.11458 -1.02083,-1.125 -1.02083,-3.29166 v -7.55207 h 1.95833 v 6.62499 q 0,0.88541 0.0833,1.52083 0.0833,0.625 0.35417,1.07291 0.28125,0.45833 0.72916,0.66667 0.44792,0.20833 1.30208,0.20833 0.76042,0 1.65625,-0.39583 0.90625,-0.39583 1.6875,-1.01042 v -8.68748 h 1.95833 z"
         id="path470" />
      <path
         d="m 405.06786,450.31059 q -0.55208,0.14583 -1.20833,0.23958 -0.64584,0.0937 -1.15625,0.0937 -1.78125,0 -2.70833,-0.95833 -0.92708,-0.95833 -0.92708,-3.07291 v -6.18749 h -1.32292 v -1.64583 h 1.32292 v -3.34375 h 1.95833 v 3.34375 h 4.04166 v 1.64583 h -4.04166 v 5.30207 q 0,0.91667 0.0417,1.4375 0.0417,0.51042 0.29167,0.95833 0.22917,0.41667 0.625,0.61458 0.40625,0.1875 1.22916,0.1875 0.47917,0 1,-0.13541 0.52084,-0.14584 0.75,-0.23959 h 0.10417 z"
         id="path472" />
      <path
         d="m 417.67199,444.45643 q 0,1.41667 -0.40625,2.59375 -0.40625,1.16666 -1.14583,1.97916 -0.6875,0.77083 -1.625,1.19792 -0.92708,0.41666 -1.96875,0.41666 -0.90625,0 -1.64583,-0.19791 -0.72916,-0.19792 -1.48958,-0.61459 v 4.87499 h -1.95833 v -15.92705 h 1.95833 v 1.21874 q 0.78125,-0.65624 1.75,-1.09374 0.97916,-0.44792 2.08333,-0.44792 2.10416,0 3.27083,1.59375 1.17708,1.58333 1.17708,4.40624 z m -2.02083,0.0521 q 0,-2.10416 -0.71875,-3.14582 -0.71875,-1.04167 -2.20833,-1.04167 -0.84375,0 -1.69791,0.36458 -0.85417,0.36459 -1.63542,0.95834 v 6.59374 q 0.83333,0.37499 1.42708,0.51041 0.60417,0.13542 1.36458,0.13542 1.63542,0 2.55208,-1.10417 0.91667,-1.10416 0.91667,-3.27083 z"
         id="path474" />
      <path
         d="m 430.3699,450.41476 h -1.95833 v -1.29167 q -0.98959,0.78125 -1.89584,1.19792 -0.90624,0.41666 -1.99999,0.41666 -1.83333,0 -2.85416,-1.11458 -1.02084,-1.125 -1.02084,-3.29166 v -7.55207 h 1.95833 v 6.62499 q 0,0.88541 0.0833,1.52083 0.0833,0.625 0.35416,1.07291 0.28125,0.45833 0.72917,0.66667 0.44792,0.20833 1.30208,0.20833 0.76042,0 1.65625,-0.39583 0.90625,-0.39583 1.6875,-1.01042 v -8.68748 h 1.95833 z"
         id="path476" />
      <path
         d="m 440.2657,450.31059 q -0.55208,0.14583 -1.20833,0.23958 -0.64583,0.0937 -1.15625,0.0937 -1.78124,0 -2.70832,-0.95833 -0.92709,-0.95833 -0.92709,-3.07291 v -6.18749 h -1.32291 v -1.64583 h 1.32291 v -3.34375 h 1.95833 v 3.34375 h 4.04166 v 1.64583 h -4.04166 v 5.30207 q 0,0.91667 0.0417,1.4375 0.0417,0.51042 0.29167,0.95833 0.22916,0.41667 0.625,0.61458 0.40624,0.1875 1.22916,0.1875 0.47917,0 1,-0.13541 0.52083,-0.14584 0.75,-0.23959 h 0.10416 z"
         id="path478" />
      <path
         d="m 448.50529,444.45643 q 0,3.13541 -1.02083,5.63541 -1.02084,2.49999 -2.86458,4.61457 h -2.38542 v -0.10416 q 0.80209,-0.71875 1.60417,-1.76042 0.8125,-1.03124 1.42708,-2.31249 0.64583,-1.33333 1.02083,-2.8125 0.38542,-1.47916 0.38542,-3.26041 0,-1.70833 -0.38542,-3.24999 -0.38541,-1.54167 -1.02083,-2.82292 -0.65625,-1.32291 -1.42708,-2.31249 -0.76042,-1 -1.60417,-1.76042 v -0.10416 h 2.38542 q 1.84374,2.11458 2.86458,4.61457 1.02083,2.5 1.02083,5.63541 z"
         id="path480" />
      <path
         d="m 90.464174,481.44595 -4.708326,11.6354 h -1.968747 l -4.677076,-11.6354 h 2.124997 l 3.604161,9.2604 3.572911,-9.2604 z"
         id="path482" />
      <path
         d="m 101.65166,493.08135 h -1.947918 v -1.23958 q -0.260416,0.17708 -0.708332,0.5 -0.437499,0.3125 -0.854165,0.5 -0.489583,0.23958 -1.124998,0.39583 -0.635416,0.16667 -1.489581,0.16667 -1.572915,0 -2.666663,-1.04167 -1.093748,-1.04166 -1.093748,-2.65624 0,-1.32292 0.562499,-2.13542 0.572916,-0.82291 1.624997,-1.29166 1.062499,-0.46875 2.55208,-0.63542 1.489581,-0.16666 3.197911,-0.25 v -0.30208 q 0,-0.66667 -0.239583,-1.10417 -0.229166,-0.43749 -0.666665,-0.68749 -0.416666,-0.23959 -0.999999,-0.32292 -0.583332,-0.0833 -1.218748,-0.0833 -0.770832,0 -1.718747,0.20833 -0.947915,0.19792 -1.95833,0.58333 h -0.104167 v -1.98958 q 0.572916,-0.15625 1.656248,-0.34375 1.083331,-0.1875 2.135413,-0.1875 1.229165,0 2.135413,0.20834 0.916666,0.19791 1.583333,0.68749 0.65625,0.47917 1,1.23959 0.34375,0.76041 0.34375,1.88541 z m -1.947918,-2.86458 v -3.23958 q -0.895832,0.0521 -2.11458,0.15625 -1.208331,0.10417 -1.916663,0.30209 -0.843749,0.23958 -1.364581,0.74999 -0.520833,0.5 -0.520833,1.38542 0,1 0.604166,1.51041 0.604166,0.5 1.843747,0.5 1.031248,0 1.885414,-0.39583 0.854165,-0.40625 1.58333,-0.96875 z"
         id="path484" />
      <path
         d="m 107.40165,493.08135 h -1.95833 v -16.20831 h 1.95833 z"
         id="path486" />
      <path
         d="m 113.3808,479.49804 h -2.20833 v -2.03125 h 2.20833 z m -0.125,13.58331 h -1.95833 v -11.6354 h 1.95833 z"
         id="path488" />
      <path
         d="m 126.56829,493.08135 h -1.95833 v -1.21875 q -0.84375,0.72917 -1.76042,1.13542 -0.91666,0.40625 -1.98958,0.40625 -2.08333,0 -3.31249,-1.60417 -1.21875,-1.60416 -1.21875,-4.44791 0,-1.47916 0.41666,-2.63541 0.42709,-1.15625 1.14584,-1.96875 0.70833,-0.79166 1.64583,-1.20833 0.94791,-0.41666 1.95833,-0.41666 0.91666,0 1.62499,0.19791 0.70834,0.1875 1.48959,0.59375 v -5.04166 h 1.95833 z m -1.95833,-2.86458 v -6.67707 q -0.79167,-0.35417 -1.41667,-0.48958 -0.625,-0.13542 -1.36458,-0.13542 -1.64583,0 -2.5625,1.14583 -0.91666,1.14583 -0.91666,3.25 0,2.07291 0.70833,3.15624 0.70833,1.07292 2.27083,1.07292 0.83333,0 1.6875,-0.36459 0.85416,-0.375 1.59375,-0.95833 z"
         id="path490" />
      <path
         d="m 144.15159,497.37301 h -2.38541 q -1.84375,-2.11458 -2.86458,-4.61458 -1.02083,-2.49999 -1.02083,-5.6354 0,-3.13542 1.02083,-5.63541 1.02083,-2.5 2.86458,-4.61458 h 2.38541 v 0.10417 q -0.84375,0.76041 -1.61458,1.76041 -0.76042,0.98958 -1.41666,2.3125 -0.625,1.28125 -1.02084,2.82291 -0.38541,1.54167 -0.38541,3.25 0,1.78124 0.375,3.26041 0.38541,1.47916 1.03125,2.81249 0.62499,1.28125 1.42708,2.3125 0.80208,1.04167 1.60416,1.76041 z"
         id="path492" />
      <path
         d="m 153.23491,493.08135 h -6.12499 v -1.58333 h 2.03125 v -12.34373 h -2.03125 v -1.58333 h 6.12499 v 1.58333 h -2.03125 v 12.34373 h 2.03125 z"
         id="path494" />
      <path
         d="m 166.31822,493.08135 h -1.95833 v -6.62499 q 0,-0.80208 -0.0937,-1.5 -0.0937,-0.70833 -0.34375,-1.10416 -0.26042,-0.4375 -0.75,-0.64583 -0.48958,-0.21875 -1.27083,-0.21875 -0.80208,0 -1.67708,0.39583 -0.875,0.39583 -1.67708,1.01041 v 8.68749 h -1.95833 v -11.6354 h 1.95833 v 1.29167 q 0.91666,-0.76042 1.89583,-1.1875 0.97916,-0.42708 2.01041,-0.42708 1.88542,0 2.875,1.13541 0.98958,1.13542 0.98958,3.27083 z"
         id="path496" />
      <path
         d="m 180.32862,487.12303 q 0,1.41666 -0.40625,2.59374 -0.40625,1.16667 -1.14583,1.97917 -0.6875,0.77083 -1.625,1.19791 -0.92708,0.41667 -1.96875,0.41667 -0.90624,0 -1.64583,-0.19792 -0.72916,-0.19792 -1.48958,-0.61458 v 4.87499 h -1.95833 v -15.92706 h 1.95833 v 1.21875 q 0.78125,-0.65625 1.75,-1.09375 0.97916,-0.44791 2.08333,-0.44791 2.10416,0 3.27083,1.59374 1.17708,1.58333 1.17708,4.40625 z m -2.02083,0.0521 q 0,-2.10416 -0.71875,-3.14583 -0.71875,-1.04166 -2.20833,-1.04166 -0.84375,0 -1.69791,0.36458 -0.85417,0.36458 -1.63542,0.95833 v 6.59374 q 0.83333,0.375 1.42708,0.51042 0.60417,0.13541 1.36458,0.13541 1.63542,0 2.55208,-1.10416 0.91667,-1.10417 0.91667,-3.27083 z"
         id="path498" />
      <path
         d="m 193.02651,493.08135 h -1.95833 v -1.29166 q -0.98958,0.78124 -1.89583,1.19791 -0.90625,0.41667 -2,0.41667 -1.83333,0 -2.85416,-1.11458 -1.02083,-1.125 -1.02083,-3.29167 v -7.55207 h 1.95833 v 6.62499 q 0,0.88542 0.0833,1.52083 0.0833,0.625 0.35417,1.07292 0.28125,0.45833 0.72917,0.66666 0.44791,0.20834 1.30208,0.20834 0.76041,0 1.65624,-0.39584 0.90625,-0.39583 1.6875,-1.01041 v -8.68749 h 1.95833 z"
         id="path500" />
      <path
         d="m 202.92233,492.97718 q -0.55208,0.14584 -1.20833,0.23959 -0.64584,0.0937 -1.15625,0.0937 -1.78125,0 -2.70833,-0.95833 -0.92708,-0.95834 -0.92708,-3.07292 v -6.18749 h -1.32292 v -1.64583 h 1.32292 v -3.34374 h 1.95833 v 3.34374 h 4.04166 v 1.64583 h -4.04166 v 5.30208 q 0,0.91666 0.0417,1.4375 0.0417,0.51041 0.29167,0.95833 0.22917,0.41666 0.625,0.61458 0.40625,0.1875 1.22916,0.1875 0.47917,0 1,-0.13542 0.52083,-0.14583 0.75,-0.23958 h 0.10417 z"
         id="path502" />
      <path
         d="m 211.1619,487.12303 q 0,3.13541 -1.02083,5.6354 -1.02083,2.5 -2.86458,4.61458 h -2.38541 v -0.10417 q 0.80208,-0.71874 1.60416,-1.76041 0.8125,-1.03125 1.42709,-2.3125 0.64583,-1.33333 1.02083,-2.81249 0.38541,-1.47917 0.38541,-3.26041 0,-1.70833 -0.38541,-3.25 -0.38542,-1.54166 -1.02083,-2.82291 -0.65625,-1.32292 -1.42709,-2.3125 -0.76041,-1 -1.60416,-1.76041 v -0.10417 h 2.38541 q 1.84375,2.11458 2.86458,4.61458 1.02083,2.49999 1.02083,5.63541 z"
         id="path504" />
      <path
         d="m 87.662095,526.24796 h -0.104167 q -0.437499,-0.10417 -0.854165,-0.14583 -0.406249,-0.0521 -0.968748,-0.0521 -0.906249,0 -1.749998,0.40625 -0.843748,0.39584 -1.624997,1.03125 v 8.26041 h -1.95833 v -11.6354 h 1.95833 v 1.71875 q 1.166665,-0.9375 2.05208,-1.32292 0.895832,-0.39583 1.822914,-0.39583 0.510416,0 0.739582,0.0312 0.229166,0.0208 0.687499,0.0937 z"
         id="path506" />
      <path
         d="m 99.24541,530.13337 h -8.572903 q 0,1.07292 0.322916,1.875 0.322916,0.79166 0.885416,1.30208 0.541665,0.5 1.281248,0.75 0.749998,0.25 1.64583,0.25 1.187498,0 2.385413,-0.46875 1.208332,-0.47917 1.718747,-0.9375 h 0.104167 v 2.13541 q -0.989582,0.41667 -2.02083,0.69792 -1.031249,0.28125 -2.166663,0.28125 -2.895829,0 -4.520827,-1.5625 -1.624997,-1.57291 -1.624997,-4.45832 0,-2.85417 1.552081,-4.53125 1.562497,-1.67708 4.10416,-1.67708 2.354163,0 3.624994,1.375 1.281248,1.375 1.281248,3.90624 z m -1.906247,-1.5 q -0.01042,-1.54166 -0.781248,-2.38541 -0.760416,-0.84375 -2.322913,-0.84375 -1.572915,0 -2.510413,0.92708 -0.927082,0.92709 -1.052082,2.30208 z"
         id="path508" />
      <path
         d="m 111.25581,535.74795 h -1.94792 v -1.23959 q -0.26041,0.17709 -0.70833,0.5 -0.4375,0.3125 -0.85416,0.5 -0.48959,0.23959 -1.125,0.39584 -0.63542,0.16666 -1.48958,0.16666 -1.57292,0 -2.66667,-1.04166 -1.09374,-1.04167 -1.09374,-2.65625 0,-1.32291 0.5625,-2.13541 0.57291,-0.82292 1.62499,-1.29167 1.0625,-0.46875 2.55208,-0.63541 1.48958,-0.16667 3.19791,-0.25 v -0.30208 q 0,-0.66667 -0.23958,-1.10417 -0.22917,-0.4375 -0.66666,-0.6875 -0.41667,-0.23958 -1,-0.32291 -0.58334,-0.0833 -1.21875,-0.0833 -0.77083,0 -1.71875,0.20834 -0.94791,0.19791 -1.95833,0.58333 h -0.10416 v -1.98958 q 0.57291,-0.15625 1.65624,-0.34375 1.08333,-0.1875 2.13542,-0.1875 1.22916,0 2.13541,0.20833 0.91666,0.19792 1.58333,0.6875 0.65625,0.47917 1,1.23958 0.34375,0.76042 0.34375,1.88542 z m -1.94792,-2.86458 v -3.23958 q -0.89583,0.0521 -2.11458,0.15625 -1.20833,0.10417 -1.91666,0.30208 -0.84375,0.23958 -1.36458,0.75 -0.52083,0.5 -0.52083,1.38541 0,1 0.60416,1.51042 0.60417,0.5 1.84375,0.5 1.03125,0 1.88541,-0.39583 0.85417,-0.40625 1.58333,-0.96875 z"
         id="path510" />
      <path
         d="m 124.46412,535.74795 h -1.95833 v -1.21875 q -0.84375,0.72916 -1.76041,1.13541 -0.91667,0.40625 -1.98958,0.40625 -2.08333,0 -3.3125,-1.60416 -1.21875,-1.60417 -1.21875,-4.44791 0,-1.47917 0.41667,-2.63541 0.42708,-1.15625 1.14583,-1.96875 0.70833,-0.79167 1.64583,-1.20833 0.94792,-0.41667 1.95833,-0.41667 0.91667,0 1.625,0.19792 0.70833,0.1875 1.48958,0.59375 v -5.04166 h 1.95833 z m -1.95833,-2.86458 v -6.67708 q -0.79166,-0.35416 -1.41666,-0.48958 -0.625,-0.13541 -1.36458,-0.13541 -1.64584,0 -2.5625,1.14583 -0.91667,1.14583 -0.91667,3.24999 0,2.07292 0.70834,3.15625 0.70833,1.07291 2.27083,1.07291 0.83333,0 1.68749,-0.36458 0.85417,-0.375 1.59375,-0.95833 z"
         id="path512" />
      <path
         d="m 138.38077,524.11255 -6.79166,15.92706 h -2.09375 l 2.16667,-4.85416 -4.63541,-11.0729 h 2.12499 l 3.57291,8.62498 3.60417,-8.62498 z"
         id="path514" />
      <path
         d="m 154.6724,540.03961 h -2.38541 q -1.84375,-2.11458 -2.86458,-4.61458 -1.02083,-2.5 -1.02083,-5.63541 0,-3.13541 1.02083,-5.63541 1.02083,-2.49999 2.86458,-4.61457 h 2.38541 v 0.10416 q -0.84374,0.76042 -1.61458,1.76042 -0.76041,0.98958 -1.41666,2.3125 -0.625,1.28124 -1.02083,2.82291 -0.38542,1.54166 -0.38542,3.24999 0,1.78125 0.375,3.26041 0.38542,1.47917 1.03125,2.8125 0.625,1.28125 1.42708,2.3125 0.80208,1.04166 1.60416,1.76041 z"
         id="path516" />
      <path
         d="m 169.84946,522.0188 q 0.94792,1.04167 1.44792,2.55208 0.51041,1.51041 0.51041,3.42708 0,1.91666 -0.52083,3.43749 -0.51041,1.51042 -1.4375,2.52083 -0.95833,1.05208 -2.27083,1.58333 -1.30208,0.53125 -2.97916,0.53125 -1.63541,0 -2.97916,-0.54166 -1.33333,-0.54167 -2.27083,-1.57292 -0.9375,-1.03125 -1.44791,-2.53124 -0.5,-1.5 -0.5,-3.42708 0,-1.89583 0.5,-3.39583 0.49999,-1.51041 1.45833,-2.58333 0.91666,-1.02083 2.27083,-1.5625 1.36458,-0.54166 2.96874,-0.54166 1.66667,0 2.98958,0.55208 1.33333,0.54167 2.26041,1.55208 z m -0.1875,5.97916 q 0,-3.02083 -1.35416,-4.65624 -1.35417,-1.64584 -3.69791,-1.64584 -2.36458,0 -3.71875,1.64584 -1.34374,1.63541 -1.34374,4.65624 0,3.05208 1.37499,4.67707 1.375,1.61458 3.6875,1.61458 2.31249,0 3.67708,-1.61458 1.37499,-1.62499 1.37499,-4.67707 z"
         id="path518" />
      <path
         d="m 184.56819,535.74795 h -1.95833 v -1.29167 q -0.98958,0.78125 -1.89583,1.19792 -0.90625,0.41666 -2,0.41666 -1.83333,0 -2.85416,-1.11458 -1.02083,-1.125 -1.02083,-3.29166 v -7.55207 h 1.95833 v 6.62499 q 0,0.88541 0.0833,1.52083 0.0833,0.625 0.35417,1.07291 0.28125,0.45834 0.72916,0.66667 0.44792,0.20833 1.30209,0.20833 0.76041,0 1.65624,-0.39583 0.90625,-0.39583 1.6875,-1.01042 v -8.68748 h 1.95833 z"
         id="path520" />
      <path
         d="m 194.46401,535.64378 q -0.55209,0.14583 -1.20833,0.23958 -0.64584,0.0937 -1.15625,0.0937 -1.78125,0 -2.70833,-0.95833 -0.92708,-0.95833 -0.92708,-3.07291 v -6.18749 h -1.32292 v -1.64583 h 1.32292 v -3.34375 h 1.95833 v 3.34375 h 4.04166 v 1.64583 h -4.04166 v 5.30207 q 0,0.91667 0.0417,1.4375 0.0417,0.51042 0.29167,0.95833 0.22917,0.41667 0.625,0.61459 0.40625,0.1875 1.22916,0.1875 0.47917,0 1,-0.13542 0.52083,-0.14583 0.75,-0.23958 h 0.10417 z"
         id="path522" />
      <path
         d="m 207.06816,529.78962 q 0,1.41667 -0.40625,2.59375 -0.40625,1.16666 -1.14583,1.97916 -0.6875,0.77083 -1.625,1.19792 -0.92708,0.41666 -1.96875,0.41666 -0.90624,0 -1.64583,-0.19791 -0.72916,-0.19792 -1.48958,-0.61459 v 4.875 h -1.95833 v -15.92706 h 1.95833 v 1.21875 q 0.78125,-0.65625 1.75,-1.09375 0.97917,-0.44792 2.08333,-0.44792 2.10416,0 3.27083,1.59375 1.17708,1.58333 1.17708,4.40624 z m -2.02083,0.0521 q 0,-2.10417 -0.71875,-3.14583 -0.71875,-1.04167 -2.20833,-1.04167 -0.84375,0 -1.69791,0.36458 -0.85417,0.36459 -1.63542,0.95834 v 6.59374 q 0.83333,0.375 1.42708,0.51041 0.60417,0.13542 1.36458,0.13542 1.63542,0 2.55208,-1.10417 0.91667,-1.10416 0.91667,-3.27082 z"
         id="path524" />
      <path
         d="m 219.76606,535.74795 h -1.95833 v -1.29167 q -0.98958,0.78125 -1.89583,1.19792 -0.90625,0.41666 -2,0.41666 -1.83333,0 -2.85416,-1.11458 -1.02083,-1.125 -1.02083,-3.29166 v -7.55207 h 1.95833 v 6.62499 q 0,0.88541 0.0833,1.52083 0.0833,0.625 0.35417,1.07291 0.28125,0.45834 0.72916,0.66667 0.44792,0.20833 1.30208,0.20833 0.76042,0 1.65625,-0.39583 0.90625,-0.39583 1.6875,-1.01042 v -8.68748 h 1.95833 z"
         id="path526" />
      <path
         d="m 229.66187,535.64378 q -0.55208,0.14583 -1.20833,0.23958 -0.64584,0.0937 -1.15625,0.0937 -1.78125,0 -2.70833,-0.95833 -0.92708,-0.95833 -0.92708,-3.07291 v -6.18749 h -1.32292 v -1.64583 h 1.32292 v -3.34375 h 1.95833 v 3.34375 h 4.04166 v 1.64583 h -4.04166 v 5.30207 q 0,0.91667 0.0417,1.4375 0.0417,0.51042 0.29167,0.95833 0.22917,0.41667 0.625,0.61459 0.40625,0.1875 1.22916,0.1875 0.47917,0 1,-0.13542 0.52084,-0.14583 0.75,-0.23958 h 0.10417 z"
         id="path528" />
      <path
         d="m 237.90144,529.78962 q 0,3.13541 -1.02084,5.63541 -1.02083,2.5 -2.86457,4.61458 h -2.38542 v -0.10417 q 0.80208,-0.71875 1.60417,-1.76041 0.8125,-1.03125 1.42708,-2.3125 0.64583,-1.33333 1.02083,-2.8125 0.38542,-1.47916 0.38542,-3.26041 0,-1.70833 -0.38542,-3.24999 -0.38542,-1.54167 -1.02083,-2.82291 -0.65625,-1.32292 -1.42708,-2.3125 -0.76042,-1 -1.60417,-1.76042 v -0.10416 h 2.38542 q 1.84374,2.11458 2.86457,4.61457 1.02084,2.5 1.02084,5.63541 z"
         id="path530" />
      <path
         d="m 89.839175,577.09163 q 0,2.95833 -1.343748,4.34374 -1.343748,1.38541 -4.13541,1.38541 -0.927082,0 -1.812497,-0.13541 -0.874999,-0.125 -1.729164,-0.36458 v -2 h 0.104166 q 0.479166,0.1875 1.520831,0.45833 1.041665,0.28125 2.08333,0.28125 0.999999,0 1.656248,-0.23958 0.656248,-0.23959 1.020831,-0.66667 0.364583,-0.40625 0.520833,-0.97916 0.15625,-0.57292 0.15625,-1.28125 v -1.0625 q -0.885416,0.70833 -1.697914,1.0625 -0.802083,0.34375 -2.052081,0.34375 -2.08333,0 -3.312494,-1.5 -1.218748,-1.51041 -1.218748,-4.24999 0,-1.5 0.416666,-2.58333 0.427082,-1.09375 1.156248,-1.88542 0.677082,-0.73958 1.645831,-1.14583 0.968748,-0.41666 1.92708,-0.41666 1.010415,0 1.687497,0.20833 0.687499,0.19792 1.447915,0.61458 l 0.124999,-0.5 h 1.833331 z m -1.95833,-1.875 v -6.34374 q -0.781249,-0.35417 -1.458332,-0.5 -0.666665,-0.15625 -1.333331,-0.15625 -1.614581,0 -2.541662,1.08333 -0.927082,1.08333 -0.927082,3.14583 0,1.95833 0.687499,2.96875 0.687499,1.01041 2.281246,1.01041 0.854165,0 1.708331,-0.32291 0.864582,-0.33334 1.583331,-0.88542 z"
         id="path532" />
      <path
         d="m 103.60999,572.60205 q 0,2.84375 -1.45833,4.48958 -1.45834,1.64583 -3.906248,1.64583 -2.468746,0 -3.927077,-1.64583 -1.447915,-1.64583 -1.447915,-4.48958 0,-2.84374 1.447915,-4.48958 1.458331,-1.65624 3.927077,-1.65624 2.447908,0 3.906248,1.65624 1.45833,1.64584 1.45833,4.48958 z m -2.02083,0 q 0,-2.26041 -0.88542,-3.35416 -0.885414,-1.10417 -2.458328,-1.10417 -1.593748,0 -2.479163,1.10417 -0.874999,1.09375 -0.874999,3.35416 0,2.1875 0.885416,3.32291 0.885415,1.125 2.468746,1.125 1.562497,0 2.447908,-1.11458 0.89584,-1.125 0.89584,-3.33333 z"
         id="path534" />
      <path
         d="m 116.55788,572.60205 q 0,2.84375 -1.45833,4.48958 -1.45833,1.64583 -3.90624,1.64583 -2.46875,0 -3.92708,-1.64583 -1.44791,-1.64583 -1.44791,-4.48958 0,-2.84374 1.44791,-4.48958 1.45833,-1.65624 3.92708,-1.65624 2.44791,0 3.90624,1.65624 1.45833,1.64584 1.45833,4.48958 z m -2.02083,0 q 0,-2.26041 -0.88541,-3.35416 -0.88542,-1.10417 -2.45833,-1.10417 -1.59375,0 -2.47916,1.10417 -0.875,1.09375 -0.875,3.35416 0,2.1875 0.88541,3.32291 0.88542,1.125 2.46875,1.125 1.5625,0 2.44791,-1.11458 0.89583,-1.125 0.89583,-3.33333 z"
         id="path536" />
      <path
         d="m 129.02661,578.41454 h -1.95833 v -1.21875 q -0.84375,0.72917 -1.76041,1.13542 -0.91667,0.40625 -1.98958,0.40625 -2.08333,0 -3.3125,-1.60417 -1.21874,-1.60416 -1.21874,-4.44791 0,-1.47916 0.41666,-2.63541 0.42709,-1.15625 1.14583,-1.96875 0.70834,-0.79166 1.64583,-1.20833 0.94792,-0.41666 1.95834,-0.41666 0.91666,0 1.62499,0.19791 0.70833,0.1875 1.48958,0.59375 v -5.04166 h 1.95833 z m -1.95833,-2.86458 v -6.67707 q -0.79166,-0.35417 -1.41666,-0.48958 -0.625,-0.13542 -1.36458,-0.13542 -1.64583,0 -2.5625,1.14583 -0.91666,1.14583 -0.91666,3.25 0,2.07291 0.70833,3.15624 0.70833,1.07292 2.27083,1.07292 0.83333,0 1.6875,-0.36459 0.85416,-0.37499 1.59374,-0.95833 z"
         id="path538" />
      <path
         d="m 146.60992,582.7062 h -2.38541 q -1.84375,-2.11458 -2.86458,-4.61457 -1.02083,-2.5 -1.02083,-5.63541 0,-3.13541 1.02083,-5.63541 1.02083,-2.5 2.86458,-4.61458 h 2.38541 v 0.10417 q -0.84375,0.76042 -1.61458,1.76041 -0.76042,0.98959 -1.41667,2.3125 -0.625,1.28125 -1.02083,2.82291 -0.38541,1.54167 -0.38541,3.25 0,1.78124 0.375,3.26041 0.38541,1.47916 1.03124,2.81249 0.625,1.28125 1.42708,2.3125 0.80209,1.04167 1.60417,1.76041 z"
         id="path540" />
      <path
         d="m 161.78698,564.6854 q 0.94791,1.04166 1.44791,2.55208 0.51042,1.51041 0.51042,3.42707 0,1.91667 -0.52083,3.4375 -0.51042,1.51041 -1.4375,2.52083 -0.95833,1.05208 -2.27083,1.58333 -1.30208,0.53125 -2.97916,0.53125 -1.63542,0 -2.97917,-0.54167 -1.33333,-0.54166 -2.27082,-1.57291 -0.9375,-1.03125 -1.44792,-2.53125 -0.5,-1.5 -0.5,-3.42708 0,-1.89583 0.5,-3.39582 0.5,-1.51042 1.45833,-2.58333 0.91667,-1.02084 2.27083,-1.5625 1.36458,-0.54167 2.96875,-0.54167 1.66666,0 2.98958,0.55209 1.33333,0.54166 2.26041,1.55208 z m -0.1875,5.97915 q 0,-3.02082 -1.35417,-4.65624 -1.35416,-1.64583 -3.69791,-1.64583 -2.36458,0 -3.71874,1.64583 -1.34375,1.63542 -1.34375,4.65624 0,3.05208 1.375,4.67708 1.375,1.61458 3.68749,1.61458 2.3125,0 3.67708,-1.61458 1.375,-1.625 1.375,-4.67708 z"
         id="path542" />
      <path
         d="m 176.50571,578.41454 h -1.95833 v -1.29166 q -0.98959,0.78125 -1.89583,1.19791 -0.90625,0.41667 -2,0.41667 -1.83333,0 -2.85416,-1.11458 -1.02083,-1.125 -1.02083,-3.29167 v -7.55207 h 1.95833 v 6.62499 q 0,0.88542 0.0833,1.52083 0.0833,0.625 0.35416,1.07292 0.28125,0.45833 0.72917,0.66666 0.44792,0.20834 1.30208,0.20834 0.76042,0 1.65625,-0.39584 0.90625,-0.39583 1.6875,-1.01041 v -8.68749 h 1.95833 z"
         id="path544" />
      <path
         d="m 186.40152,578.31037 q -0.55208,0.14584 -1.20833,0.23959 -0.64583,0.0937 -1.15625,0.0937 -1.78124,0 -2.70833,-0.95833 -0.92708,-0.95834 -0.92708,-3.07292 v -6.18749 h -1.32291 v -1.64583 h 1.32291 v -3.34374 h 1.95833 v 3.34374 h 4.04166 v 1.64583 h -4.04166 v 5.30208 q 0,0.91666 0.0417,1.4375 0.0417,0.51041 0.29166,0.95833 0.22917,0.41666 0.625,0.61458 0.40625,0.1875 1.22917,0.1875 0.47916,0 1,-0.13542 0.52083,-0.14583 0.75,-0.23958 h 0.10416 z"
         id="path546" />
      <path
         d="m 199.00567,572.45622 q 0,1.41666 -0.40625,2.59374 -0.40625,1.16667 -1.14583,1.97917 -0.6875,0.77083 -1.625,1.19791 -0.92708,0.41667 -1.96875,0.41667 -0.90625,0 -1.64583,-0.19792 -0.72916,-0.19791 -1.48958,-0.61458 v 4.87499 h -1.95833 v -15.92706 h 1.95833 v 1.21875 q 0.78125,-0.65625 1.75,-1.09375 0.97916,-0.44791 2.08333,-0.44791 2.10416,0 3.27083,1.59374 1.17708,1.58334 1.17708,4.40625 z m -2.02083,0.0521 q 0,-2.10416 -0.71875,-3.14583 -0.71875,-1.04166 -2.20833,-1.04166 -0.84375,0 -1.69792,0.36458 -0.85416,0.36458 -1.63541,0.95833 v 6.59374 q 0.83333,0.375 1.42708,0.51042 0.60417,0.13541 1.36458,0.13541 1.63542,0 2.55208,-1.10416 0.91667,-1.10417 0.91667,-3.27083 z"
         id="path548" />
      <path
         d="m 211.70357,578.41454 h -1.95833 v -1.29166 q -0.98958,0.78125 -1.89583,1.19791 -0.90625,0.41667 -2,0.41667 -1.83333,0 -2.85416,-1.11458 -1.02083,-1.125 -1.02083,-3.29167 v -7.55207 h 1.95833 v 6.62499 q 0,0.88542 0.0833,1.52083 0.0833,0.625 0.35417,1.07292 0.28124,0.45833 0.72916,0.66666 0.44792,0.20834 1.30208,0.20834 0.76042,0 1.65625,-0.39584 0.90625,-0.39583 1.6875,-1.01041 v -8.68749 h 1.95833 z"
         id="path550" />
      <path
         d="m 221.59938,578.31037 q -0.55208,0.14584 -1.20833,0.23959 -0.64583,0.0937 -1.15625,0.0937 -1.78124,0 -2.70833,-0.95833 -0.92708,-0.95834 -0.92708,-3.07292 v -6.18749 h -1.32291 v -1.64583 h 1.32291 v -3.34374 h 1.95833 v 3.34374 h 4.04166 v 1.64583 h -4.04166 v 5.30208 q 0,0.91666 0.0417,1.4375 0.0417,0.51041 0.29167,0.95833 0.22916,0.41666 0.62499,0.61458 0.40625,0.1875 1.22917,0.1875 0.47917,0 1,-0.13542 0.52083,-0.14583 0.75,-0.23958 h 0.10416 z"
         id="path552" />
      <path
         d="m 229.83895,572.45622 q 0,3.13541 -1.02083,5.63541 -1.02083,2.49999 -2.86458,4.61457 h -2.38541 v -0.10417 q 0.80208,-0.71874 1.60416,-1.76041 0.8125,-1.03125 1.42708,-2.3125 0.64584,-1.33333 1.02084,-2.81249 0.38541,-1.47917 0.38541,-3.26041 0,-1.70833 -0.38541,-3.25 -0.38542,-1.54166 -1.02084,-2.82291 -0.65625,-1.32291 -1.42708,-2.3125 -0.76041,-0.99999 -1.60416,-1.76041 v -0.10417 h 2.38541 q 1.84375,2.11458 2.86458,4.61458 1.02083,2.5 1.02083,5.63541 z"
         id="path554" />
    </g>
  </g>
</svg>
